<?xml version="1.0" encoding="UTF-8" standalone="no"?><svg xmlns="http://www.w3.org/2000/svg" xmlns:xlink="http://www.w3.org/1999/xlink" contentStyleType="text/css" height="1520px" preserveAspectRatio="none" style="width:820px;height:1520px;background:#FFFFFF;" version="1.1" viewBox="0 0 820 1520" width="820px" zoomAndPan="magnify"><defs/><g><rect fill="#FFFFFF" height="246.4844" style="stroke:#181818;stroke-width:1.0;" width="10" x="155.5" y="156.1094"/><rect fill="#FFFFFF" height="436.6582" style="stroke:#181818;stroke-width:1.0;" width="10" x="155.5" y="490.5254"/><rect fill="#FFFFFF" height="204.1738" style="stroke:#181818;stroke-width:1.0;" width="10" x="155.5" y="999.8047"/><rect fill="#FFFFFF" height="362.7266" style="stroke:#181818;stroke-width:1.0;" width="10" x="322.5" y="564.457"/><rect fill="#FFFFFF" height="71.6211" style="stroke:#181818;stroke-width:1.0;" width="10" x="422.5" y="609.0781"/><rect fill="#FFFFFF" height="71.6211" style="stroke:#181818;stroke-width:1.0;" width="10" x="422.5" y="1277.9102"/><rect fill="#FFFFFF" height="145.5527" style="stroke:#181818;stroke-width:1.0;" width="10" x="489.5" y="257.041"/><rect fill="#FFFFFF" height="145.5527" style="stroke:#181818;stroke-width:1.0;" width="10" x="489.5" y="752.3203"/><rect fill="#FFFFFF" height="103.2422" style="stroke:#181818;stroke-width:1.0;" width="10" x="489.5" y="1100.7363"/><rect fill="#FFFFFF" height="145.5527" style="stroke:#181818;stroke-width:1.0;" width="10" x="566.5" y="1233.2891"/><rect fill="#FFFFFF" height="71.6211" style="stroke:#181818;stroke-width:1.0;" width="10" x="710.5" y="301.6621"/><rect fill="#FFFFFF" height="71.6211" style="stroke:#181818;stroke-width:1.0;" width="10" x="710.5" y="796.9414"/><rect fill="#FFFFFF" height="87.9316" style="stroke:#181818;stroke-width:1.0;" width="10" x="710.5" y="1145.3574"/><rect fill="#FFFFFF" height="51.3105" style="stroke:#181818;stroke-width:1.0;" width="10" x="710.5" y="1378.8418"/><line style="stroke:#181818;stroke-width:0.5;stroke-dasharray:5.0,5.0;" x1="23" x2="23" y1="81.4883" y2="1439.1523"/><line style="stroke:#181818;stroke-width:0.5;stroke-dasharray:5.0,5.0;" x1="160" x2="160" y1="81.4883" y2="1439.1523"/><line style="stroke:#181818;stroke-width:0.5;stroke-dasharray:5.0,5.0;" x1="327" x2="327" y1="81.4883" y2="1439.1523"/><line style="stroke:#181818;stroke-width:0.5;stroke-dasharray:5.0,5.0;" x1="427.5" x2="427.5" y1="81.4883" y2="1439.1523"/><line style="stroke:#181818;stroke-width:0.5;stroke-dasharray:5.0,5.0;" x1="494" x2="494" y1="81.4883" y2="1439.1523"/><line style="stroke:#181818;stroke-width:0.5;stroke-dasharray:5.0,5.0;" x1="571" x2="571" y1="81.4883" y2="1439.1523"/><line style="stroke:#181818;stroke-width:0.5;stroke-dasharray:5.0,5.0;" x1="715" x2="715" y1="81.4883" y2="1439.1523"/><text fill="#000000" font-family="sans-serif" font-size="14" lengthAdjust="spacing" textLength="31" x="5" y="78.5352">User</text><ellipse cx="23.5" cy="13.5" fill="#E2E2F0" rx="8" ry="8" style="stroke:#181818;stroke-width:0.5;"/><path d="M23.5,21.5 L23.5,48.5 M10.5,29.5 L36.5,29.5 M23.5,48.5 L10.5,63.5 M23.5,48.5 L36.5,63.5 " fill="none" style="stroke:#181818;stroke-width:0.5;"/><text fill="#000000" font-family="sans-serif" font-size="14" lengthAdjust="spacing" textLength="31" x="5" y="1451.6875">User</text><ellipse cx="23.5" cy="1463.1406" fill="#E2E2F0" rx="8" ry="8" style="stroke:#181818;stroke-width:0.5;"/><path d="M23.5,1471.1406 L23.5,1498.1406 M10.5,1479.1406 L36.5,1479.1406 M23.5,1498.1406 L10.5,1513.1406 M23.5,1498.1406 L36.5,1513.1406 " fill="none" style="stroke:#181818;stroke-width:0.5;"/><rect fill="#E2E2F0" height="30.4883" rx="2.5" ry="2.5" style="stroke:#181818;stroke-width:0.5;" width="51" x="135" y="50"/><text fill="#000000" font-family="sans-serif" font-size="14" lengthAdjust="spacing" textLength="37" x="142" y="70.5352">Front</text><rect fill="#E2E2F0" height="30.4883" rx="2.5" ry="2.5" style="stroke:#181818;stroke-width:0.5;" width="51" x="135" y="1438.1523"/><text fill="#000000" font-family="sans-serif" font-size="14" lengthAdjust="spacing" textLength="37" x="142" y="1458.6875">Front</text><rect fill="#E2E2F0" height="30.4883" rx="2.5" ry="2.5" style="stroke:#181818;stroke-width:0.5;" width="57" x="299" y="50"/><text fill="#000000" font-family="sans-serif" font-size="14" lengthAdjust="spacing" textLength="43" x="306" y="70.5352">Server</text><rect fill="#E2E2F0" height="30.4883" rx="2.5" ry="2.5" style="stroke:#181818;stroke-width:0.5;" width="57" x="299" y="1438.1523"/><text fill="#000000" font-family="sans-serif" font-size="14" lengthAdjust="spacing" textLength="43" x="306" y="1458.6875">Server</text><rect fill="#E2E2F0" height="30.4883" rx="2.5" ry="2.5" style="stroke:#181818;stroke-width:0.5;" width="28" x="413.5" y="50"/><text fill="#000000" font-family="sans-serif" font-size="14" lengthAdjust="spacing" textLength="14" x="420.5" y="70.5352">AI</text><rect fill="#E2E2F0" height="30.4883" rx="2.5" ry="2.5" style="stroke:#181818;stroke-width:0.5;" width="28" x="413.5" y="1438.1523"/><text fill="#000000" font-family="sans-serif" font-size="14" lengthAdjust="spacing" textLength="14" x="420.5" y="1458.6875">AI</text><rect fill="#E2E2F0" height="30.4883" rx="2.5" ry="2.5" style="stroke:#181818;stroke-width:0.5;" width="55" x="467" y="50"/><text fill="#000000" font-family="sans-serif" font-size="14" lengthAdjust="spacing" textLength="41" x="474" y="70.5352">Infura</text><rect fill="#E2E2F0" height="30.4883" rx="2.5" ry="2.5" style="stroke:#181818;stroke-width:0.5;" width="55" x="467" y="1438.1523"/><text fill="#000000" font-family="sans-serif" font-size="14" lengthAdjust="spacing" textLength="41" x="474" y="1458.6875">Infura</text><rect fill="#E2E2F0" height="30.4883" rx="2.5" ry="2.5" style="stroke:#181818;stroke-width:0.5;" width="79" x="532" y="50"/><text fill="#000000" font-family="sans-serif" font-size="14" lengthAdjust="spacing" textLength="65" x="539" y="70.5352">Chainlink</text><rect fill="#E2E2F0" height="30.4883" rx="2.5" ry="2.5" style="stroke:#181818;stroke-width:0.5;" width="79" x="532" y="1438.1523"/><text fill="#000000" font-family="sans-serif" font-size="14" lengthAdjust="spacing" textLength="65" x="539" y="1458.6875">Chainlink</text><rect fill="#E2E2F0" height="30.4883" style="stroke:#181818;stroke-width:0.5;" width="145" x="645" y="46"/><rect fill="#E2E2F0" height="30.4883" style="stroke:#181818;stroke-width:0.5;" width="145" x="641" y="50"/><text fill="#000000" font-family="sans-serif" font-size="14" lengthAdjust="spacing" textLength="131" x="648" y="70.5352">VotingNFTContract</text><rect fill="#E2E2F0" height="30.4883" style="stroke:#181818;stroke-width:0.5;" width="145" x="645" y="1438.1523"/><rect fill="#E2E2F0" height="30.4883" style="stroke:#181818;stroke-width:0.5;" width="145" x="641" y="1442.1523"/><text fill="#000000" font-family="sans-serif" font-size="14" lengthAdjust="spacing" textLength="131" x="648" y="1462.6875">VotingNFTContract</text><rect fill="#FFFFFF" height="246.4844" style="stroke:#181818;stroke-width:1.0;" width="10" x="155.5" y="156.1094"/><rect fill="#FFFFFF" height="436.6582" style="stroke:#181818;stroke-width:1.0;" width="10" x="155.5" y="490.5254"/><rect fill="#FFFFFF" height="204.1738" style="stroke:#181818;stroke-width:1.0;" width="10" x="155.5" y="999.8047"/><rect fill="#FFFFFF" height="362.7266" style="stroke:#181818;stroke-width:1.0;" width="10" x="322.5" y="564.457"/><rect fill="#FFFFFF" height="71.6211" style="stroke:#181818;stroke-width:1.0;" width="10" x="422.5" y="609.0781"/><rect fill="#FFFFFF" height="71.6211" style="stroke:#181818;stroke-width:1.0;" width="10" x="422.5" y="1277.9102"/><rect fill="#FFFFFF" height="145.5527" style="stroke:#181818;stroke-width:1.0;" width="10" x="489.5" y="257.041"/><rect fill="#FFFFFF" height="145.5527" style="stroke:#181818;stroke-width:1.0;" width="10" x="489.5" y="752.3203"/><rect fill="#FFFFFF" height="103.2422" style="stroke:#181818;stroke-width:1.0;" width="10" x="489.5" y="1100.7363"/><rect fill="#FFFFFF" height="145.5527" style="stroke:#181818;stroke-width:1.0;" width="10" x="566.5" y="1233.2891"/><rect fill="#FFFFFF" height="71.6211" style="stroke:#181818;stroke-width:1.0;" width="10" x="710.5" y="301.6621"/><rect fill="#FFFFFF" height="71.6211" style="stroke:#181818;stroke-width:1.0;" width="10" x="710.5" y="796.9414"/><rect fill="#FFFFFF" height="87.9316" style="stroke:#181818;stroke-width:1.0;" width="10" x="710.5" y="1145.3574"/><rect fill="#FFFFFF" height="51.3105" style="stroke:#181818;stroke-width:1.0;" width="10" x="710.5" y="1378.8418"/><rect fill="#EEEEEE" height="3" style="stroke:#EEEEEE;stroke-width:1.0;" width="813.5" x="0" y="112.1436"/><line style="stroke:#000000;stroke-width:1.0;" x1="0" x2="813.5" y1="112.1436" y2="112.1436"/><line style="stroke:#000000;stroke-width:1.0;" x1="0" x2="813.5" y1="115.1436" y2="115.1436"/><rect fill="#EEEEEE" height="23.3105" style="stroke:#000000;stroke-width:2.0;" width="130" x="341.75" y="101.4883"/><text fill="#000000" font-family="sans-serif" font-size="13" font-weight="bold" lengthAdjust="spacing" textLength="112" x="347.75" y="118.0566">Voting Minimum</text><line style="stroke:#181818;stroke-width:1.0;" x1="153.5" x2="143.5" y1="156.1094" y2="152.1094"/><line style="stroke:#181818;stroke-width:1.0;" x1="153.5" x2="143.5" y1="156.1094" y2="160.1094"/><line style="stroke:#181818;stroke-width:1.0;" x1="23.5" x2="154.5" y1="156.1094" y2="156.1094"/><text fill="#000000" font-family="sans-serif" font-size="13" lengthAdjust="spacing" textLength="113" x="30.5" y="151.3672">Tap voting button</text><line style="stroke:#181818;stroke-width:1.0;" x1="165.5" x2="207.5" y1="185.4199" y2="185.4199"/><line style="stroke:#181818;stroke-width:1.0;" x1="207.5" x2="207.5" y1="185.4199" y2="198.4199"/><line style="stroke:#181818;stroke-width:1.0;" x1="166.5" x2="207.5" y1="198.4199" y2="198.4199"/><polygon fill="#181818" points="176.5,194.4199,166.5,198.4199,176.5,202.4199,172.5,198.4199" style="stroke:#181818;stroke-width:1.0;"/><text fill="#000000" font-family="sans-serif" font-size="13" lengthAdjust="spacing" textLength="57" x="172.5" y="180.6777">Create tx</text><line style="stroke:#181818;stroke-width:1.0;" x1="153.5" x2="143.5" y1="227.7305" y2="223.7305"/><line style="stroke:#181818;stroke-width:1.0;" x1="153.5" x2="143.5" y1="227.7305" y2="231.7305"/><line style="stroke:#181818;stroke-width:1.0;" x1="23.5" x2="154.5" y1="227.7305" y2="227.7305"/><text fill="#000000" font-family="sans-serif" font-size="13" lengthAdjust="spacing" textLength="27" x="30.5" y="222.9883">Sign</text><polygon fill="#181818" points="477.5,253.041,487.5,257.041,477.5,261.041,481.5,257.041" style="stroke:#181818;stroke-width:1.0;"/><line style="stroke:#181818;stroke-width:1.0;" x1="165.5" x2="483.5" y1="257.041" y2="257.041"/><text fill="#000000" font-family="sans-serif" font-size="13" lengthAdjust="spacing" textLength="47" x="172.5" y="252.2988">Send tx</text><polygon fill="#181818" points="698.5,297.6621,708.5,301.6621,698.5,305.6621,702.5,301.6621" style="stroke:#181818;stroke-width:1.0;"/><line style="stroke:#181818;stroke-width:1.0;" x1="499.5" x2="704.5" y1="301.6621" y2="301.6621"/><text fill="#000000" font-family="sans-serif" font-size="13" lengthAdjust="spacing" textLength="74" x="506.5" y="281.6094">Transfer nft</text><text fill="#000000" font-family="sans-serif" font-size="13" lengthAdjust="spacing" textLength="81" x="506.5" y="296.9199">- tokenId, to</text><line style="stroke:#181818;stroke-width:1.0;" x1="720.5" x2="762.5" y1="330.9727" y2="330.9727"/><line style="stroke:#181818;stroke-width:1.0;" x1="762.5" x2="762.5" y1="330.9727" y2="343.9727"/><line style="stroke:#181818;stroke-width:1.0;" x1="721.5" x2="762.5" y1="343.9727" y2="343.9727"/><polygon fill="#181818" points="731.5,339.9727,721.5,343.9727,731.5,347.9727,727.5,343.9727" style="stroke:#181818;stroke-width:1.0;"/><text fill="#000000" font-family="sans-serif" font-size="13" lengthAdjust="spacing" textLength="74" x="727.5" y="326.2305">Transfer nft</text><polygon fill="#181818" points="510.5,369.2832,500.5,373.2832,510.5,377.2832,506.5,373.2832" style="stroke:#181818;stroke-width:1.0;"/><line style="stroke:#181818;stroke-width:1.0;stroke-dasharray:2.0,2.0;" x1="504.5" x2="714.5" y1="373.2832" y2="373.2832"/><text fill="#000000" font-family="sans-serif" font-size="13" lengthAdjust="spacing" textLength="46" x="516.5" y="368.541">Receipt</text><polygon fill="#181818" points="171.5,398.5938,161.5,402.5938,171.5,406.5938,167.5,402.5938" style="stroke:#181818;stroke-width:1.0;"/><line style="stroke:#181818;stroke-width:1.0;stroke-dasharray:2.0,2.0;" x1="165.5" x2="493.5" y1="402.5938" y2="402.5938"/><text fill="#000000" font-family="sans-serif" font-size="13" lengthAdjust="spacing" textLength="46" x="177.5" y="397.8516">Receipt</text><rect fill="#EEEEEE" height="3" style="stroke:#EEEEEE;stroke-width:1.0;" width="813.5" x="0" y="431.249"/><line style="stroke:#000000;stroke-width:1.0;" x1="0" x2="813.5" y1="431.249" y2="431.249"/><line style="stroke:#000000;stroke-width:1.0;" x1="0" x2="813.5" y1="434.249" y2="434.249"/><rect fill="#EEEEEE" height="23.3105" style="stroke:#000000;stroke-width:2.0;" width="90" x="361.75" y="420.5938"/><text fill="#000000" font-family="sans-serif" font-size="13" font-weight="bold" lengthAdjust="spacing" textLength="72" x="367.75" y="437.1621">Voting Full</text><line style="stroke:#181818;stroke-width:1.0;" x1="153.5" x2="143.5" y1="490.5254" y2="486.5254"/><line style="stroke:#181818;stroke-width:1.0;" x1="153.5" x2="143.5" y1="490.5254" y2="494.5254"/><line style="stroke:#181818;stroke-width:1.0;" x1="23.5" x2="154.5" y1="490.5254" y2="490.5254"/><text fill="#000000" font-family="sans-serif" font-size="13" lengthAdjust="spacing" textLength="113" x="30.5" y="470.4727">Tap voting button</text><text fill="#000000" font-family="sans-serif" font-size="13" lengthAdjust="spacing" textLength="90" x="30.5" y="485.7832">with comment</text><line style="stroke:#181818;stroke-width:1.0;" x1="153.5" x2="143.5" y1="519.8359" y2="515.8359"/><line style="stroke:#181818;stroke-width:1.0;" x1="153.5" x2="143.5" y1="519.8359" y2="523.8359"/><line style="stroke:#181818;stroke-width:1.0;" x1="23.5" x2="154.5" y1="519.8359" y2="519.8359"/><text fill="#000000" font-family="sans-serif" font-size="13" lengthAdjust="spacing" textLength="27" x="30.5" y="515.0938">Sign</text><polygon fill="#181818" points="310.5,560.457,320.5,564.457,310.5,568.457,314.5,564.457" style="stroke:#181818;stroke-width:1.0;"/><line style="stroke:#181818;stroke-width:1.0;" x1="165.5" x2="316.5" y1="564.457" y2="564.457"/><text fill="#000000" font-family="sans-serif" font-size="13" lengthAdjust="spacing" textLength="106" x="172.5" y="544.4043">Transfer Request</text><text fill="#000000" font-family="sans-serif" font-size="13" lengthAdjust="spacing" textLength="138" x="172.5" y="559.7148">- signature, comment</text><polygon fill="#181818" points="410.5,605.0781,420.5,609.0781,410.5,613.0781,414.5,609.0781" style="stroke:#181818;stroke-width:1.0;"/><line style="stroke:#181818;stroke-width:1.0;" x1="332.5" x2="416.5" y1="609.0781" y2="609.0781"/><text fill="#000000" font-family="sans-serif" font-size="13" lengthAdjust="spacing" textLength="43" x="339.5" y="589.0254">Predict</text><text fill="#000000" font-family="sans-serif" font-size="13" lengthAdjust="spacing" textLength="71" x="339.5" y="604.3359">- comment</text><line style="stroke:#181818;stroke-width:1.0;" x1="432.5" x2="474.5" y1="638.3887" y2="638.3887"/><line style="stroke:#181818;stroke-width:1.0;" x1="474.5" x2="474.5" y1="638.3887" y2="651.3887"/><line style="stroke:#181818;stroke-width:1.0;" x1="433.5" x2="474.5" y1="651.3887" y2="651.3887"/><polygon fill="#181818" points="443.5,647.3887,433.5,651.3887,443.5,655.3887,439.5,651.3887" style="stroke:#181818;stroke-width:1.0;"/><text fill="#000000" font-family="sans-serif" font-size="13" lengthAdjust="spacing" textLength="43" x="439.5" y="633.6465">Predict</text><polygon fill="#181818" points="343.5,676.6992,333.5,680.6992,343.5,684.6992,339.5,680.6992" style="stroke:#181818;stroke-width:1.0;"/><line style="stroke:#181818;stroke-width:1.0;stroke-dasharray:2.0,2.0;" x1="337.5" x2="426.5" y1="680.6992" y2="680.6992"/><text fill="#000000" font-family="sans-serif" font-size="13" lengthAdjust="spacing" textLength="61" x="349.5" y="675.957">Comment</text><line style="stroke:#181818;stroke-width:1.0;" x1="332.5" x2="374.5" y1="710.0098" y2="710.0098"/><line style="stroke:#181818;stroke-width:1.0;" x1="374.5" x2="374.5" y1="710.0098" y2="723.0098"/><line style="stroke:#181818;stroke-width:1.0;" x1="333.5" x2="374.5" y1="723.0098" y2="723.0098"/><polygon fill="#181818" points="343.5,719.0098,333.5,723.0098,343.5,727.0098,339.5,723.0098" style="stroke:#181818;stroke-width:1.0;"/><text fill="#000000" font-family="sans-serif" font-size="13" lengthAdjust="spacing" textLength="57" x="339.5" y="705.2676">Create tx</text><polygon fill="#181818" points="477.5,748.3203,487.5,752.3203,477.5,756.3203,481.5,752.3203" style="stroke:#181818;stroke-width:1.0;"/><line style="stroke:#181818;stroke-width:1.0;" x1="332.5" x2="483.5" y1="752.3203" y2="752.3203"/><text fill="#000000" font-family="sans-serif" font-size="13" lengthAdjust="spacing" textLength="47" x="339.5" y="747.5781">Send tx</text><polygon fill="#181818" points="698.5,792.9414,708.5,796.9414,698.5,800.9414,702.5,796.9414" style="stroke:#181818;stroke-width:1.0;"/><line style="stroke:#181818;stroke-width:1.0;" x1="499.5" x2="704.5" y1="796.9414" y2="796.9414"/><text fill="#000000" font-family="sans-serif" font-size="13" lengthAdjust="spacing" textLength="74" x="506.5" y="776.8887">Transfer nft</text><text fill="#000000" font-family="sans-serif" font-size="13" lengthAdjust="spacing" textLength="81" x="506.5" y="792.1992">- tokenId, to</text><line style="stroke:#181818;stroke-width:1.0;" x1="720.5" x2="762.5" y1="826.252" y2="826.252"/><line style="stroke:#181818;stroke-width:1.0;" x1="762.5" x2="762.5" y1="826.252" y2="839.252"/><line style="stroke:#181818;stroke-width:1.0;" x1="721.5" x2="762.5" y1="839.252" y2="839.252"/><polygon fill="#181818" points="731.5,835.252,721.5,839.252,731.5,843.252,727.5,839.252" style="stroke:#181818;stroke-width:1.0;"/><text fill="#000000" font-family="sans-serif" font-size="13" lengthAdjust="spacing" textLength="74" x="727.5" y="821.5098">Transfer nft</text><polygon fill="#181818" points="510.5,864.5625,500.5,868.5625,510.5,872.5625,506.5,868.5625" style="stroke:#181818;stroke-width:1.0;"/><line style="stroke:#181818;stroke-width:1.0;stroke-dasharray:2.0,2.0;" x1="504.5" x2="714.5" y1="868.5625" y2="868.5625"/><text fill="#000000" font-family="sans-serif" font-size="13" lengthAdjust="spacing" textLength="46" x="516.5" y="863.8203">Receipt</text><polygon fill="#181818" points="343.5,893.873,333.5,897.873,343.5,901.873,339.5,897.873" style="stroke:#181818;stroke-width:1.0;"/><line style="stroke:#181818;stroke-width:1.0;stroke-dasharray:2.0,2.0;" x1="337.5" x2="493.5" y1="897.873" y2="897.873"/><text fill="#000000" font-family="sans-serif" font-size="13" lengthAdjust="spacing" textLength="46" x="349.5" y="893.1309">Receipt</text><polygon fill="#181818" points="171.5,923.1836,161.5,927.1836,171.5,931.1836,167.5,927.1836" style="stroke:#181818;stroke-width:1.0;"/><line style="stroke:#181818;stroke-width:1.0;stroke-dasharray:2.0,2.0;" x1="165.5" x2="326.5" y1="927.1836" y2="927.1836"/><text fill="#000000" font-family="sans-serif" font-size="13" lengthAdjust="spacing" textLength="39" x="177.5" y="922.4414">Result</text><rect fill="#EEEEEE" height="3" style="stroke:#EEEEEE;stroke-width:1.0;" width="813.5" x="0" y="955.8389"/><line style="stroke:#000000;stroke-width:1.0;" x1="0" x2="813.5" y1="955.8389" y2="955.8389"/><line style="stroke:#000000;stroke-width:1.0;" x1="0" x2="813.5" y1="958.8389" y2="958.8389"/><rect fill="#EEEEEE" height="23.3105" style="stroke:#000000;stroke-width:2.0;" width="101" x="356.25" y="945.1836"/><text fill="#000000" font-family="sans-serif" font-size="13" font-weight="bold" lengthAdjust="spacing" textLength="83" x="362.25" y="961.752">Voting Extra</text><line style="stroke:#181818;stroke-width:1.0;" x1="153.5" x2="143.5" y1="999.8047" y2="995.8047"/><line style="stroke:#181818;stroke-width:1.0;" x1="153.5" x2="143.5" y1="999.8047" y2="1003.8047"/><line style="stroke:#181818;stroke-width:1.0;" x1="23.5" x2="154.5" y1="999.8047" y2="999.8047"/><text fill="#000000" font-family="sans-serif" font-size="13" lengthAdjust="spacing" textLength="113" x="30.5" y="995.0625">Tap voting button</text><line style="stroke:#181818;stroke-width:1.0;" x1="165.5" x2="207.5" y1="1029.1152" y2="1029.1152"/><line style="stroke:#181818;stroke-width:1.0;" x1="207.5" x2="207.5" y1="1029.1152" y2="1042.1152"/><line style="stroke:#181818;stroke-width:1.0;" x1="166.5" x2="207.5" y1="1042.1152" y2="1042.1152"/><polygon fill="#181818" points="176.5,1038.1152,166.5,1042.1152,176.5,1046.1152,172.5,1042.1152" style="stroke:#181818;stroke-width:1.0;"/><text fill="#000000" font-family="sans-serif" font-size="13" lengthAdjust="spacing" textLength="57" x="172.5" y="1024.373">Create tx</text><line style="stroke:#181818;stroke-width:1.0;" x1="153.5" x2="143.5" y1="1071.4258" y2="1067.4258"/><line style="stroke:#181818;stroke-width:1.0;" x1="153.5" x2="143.5" y1="1071.4258" y2="1075.4258"/><line style="stroke:#181818;stroke-width:1.0;" x1="23.5" x2="154.5" y1="1071.4258" y2="1071.4258"/><text fill="#000000" font-family="sans-serif" font-size="13" lengthAdjust="spacing" textLength="27" x="30.5" y="1066.6836">Sign</text><polygon fill="#181818" points="477.5,1096.7363,487.5,1100.7363,477.5,1104.7363,481.5,1100.7363" style="stroke:#181818;stroke-width:1.0;"/><line style="stroke:#181818;stroke-width:1.0;" x1="165.5" x2="483.5" y1="1100.7363" y2="1100.7363"/><text fill="#000000" font-family="sans-serif" font-size="13" lengthAdjust="spacing" textLength="47" x="172.5" y="1095.9941">Send tx</text><polygon fill="#181818" points="698.5,1141.3574,708.5,1145.3574,698.5,1149.3574,702.5,1145.3574" style="stroke:#181818;stroke-width:1.0;"/><line style="stroke:#181818;stroke-width:1.0;" x1="499.5" x2="704.5" y1="1145.3574" y2="1145.3574"/><text fill="#000000" font-family="sans-serif" font-size="13" lengthAdjust="spacing" textLength="74" x="506.5" y="1125.3047">Transfer nft</text><text fill="#000000" font-family="sans-serif" font-size="13" lengthAdjust="spacing" textLength="81" x="506.5" y="1140.6152">- tokenId, to</text><polygon fill="#181818" points="510.5,1170.668,500.5,1174.668,510.5,1178.668,506.5,1174.668" style="stroke:#181818;stroke-width:1.0;"/><line style="stroke:#181818;stroke-width:1.0;stroke-dasharray:2.0,2.0;" x1="504.5" x2="709.5" y1="1174.668" y2="1174.668"/><text fill="#000000" font-family="sans-serif" font-size="13" lengthAdjust="spacing" textLength="46" x="516.5" y="1169.9258">Receipt</text><polygon fill="#181818" points="171.5,1199.9785,161.5,1203.9785,171.5,1207.9785,167.5,1203.9785" style="stroke:#181818;stroke-width:1.0;"/><line style="stroke:#181818;stroke-width:1.0;stroke-dasharray:2.0,2.0;" x1="165.5" x2="493.5" y1="1203.9785" y2="1203.9785"/><text fill="#000000" font-family="sans-serif" font-size="13" lengthAdjust="spacing" textLength="46" x="177.5" y="1199.2363">Receipt</text><line style="stroke:#181818;stroke-width:1.0;" x1="577.5" x2="587.5" y1="1233.2891" y2="1229.2891"/><line style="stroke:#181818;stroke-width:1.0;" x1="577.5" x2="587.5" y1="1233.2891" y2="1237.2891"/><line style="stroke:#181818;stroke-width:1.0;" x1="576.5" x2="714.5" y1="1233.2891" y2="1233.2891"/><text fill="#000000" font-family="sans-serif" font-size="13" lengthAdjust="spacing" textLength="115" x="593.5" y="1228.5469">Comment Request</text><polygon fill="#181818" points="443.5,1273.9102,433.5,1277.9102,443.5,1281.9102,439.5,1277.9102" style="stroke:#181818;stroke-width:1.0;"/><line style="stroke:#181818;stroke-width:1.0;" x1="437.5" x2="565.5" y1="1277.9102" y2="1277.9102"/><text fill="#000000" font-family="sans-serif" font-size="13" lengthAdjust="spacing" textLength="43" x="449.5" y="1257.8574">Predict</text><text fill="#000000" font-family="sans-serif" font-size="13" lengthAdjust="spacing" textLength="71" x="449.5" y="1273.168">- comment</text><line style="stroke:#181818;stroke-width:1.0;" x1="432.5" x2="474.5" y1="1307.2207" y2="1307.2207"/><line style="stroke:#181818;stroke-width:1.0;" x1="474.5" x2="474.5" y1="1307.2207" y2="1320.2207"/><line style="stroke:#181818;stroke-width:1.0;" x1="433.5" x2="474.5" y1="1320.2207" y2="1320.2207"/><polygon fill="#181818" points="443.5,1316.2207,433.5,1320.2207,443.5,1324.2207,439.5,1320.2207" style="stroke:#181818;stroke-width:1.0;"/><text fill="#000000" font-family="sans-serif" font-size="13" lengthAdjust="spacing" textLength="43" x="439.5" y="1302.4785">Predict</text><polygon fill="#181818" points="554.5,1345.5313,564.5,1349.5313,554.5,1353.5313,558.5,1349.5313" style="stroke:#181818;stroke-width:1.0;"/><line style="stroke:#181818;stroke-width:1.0;stroke-dasharray:2.0,2.0;" x1="427.5" x2="560.5" y1="1349.5313" y2="1349.5313"/><text fill="#000000" font-family="sans-serif" font-size="13" lengthAdjust="spacing" textLength="61" x="434.5" y="1344.7891">Comment</text><polygon fill="#181818" points="698.5,1374.8418,708.5,1378.8418,698.5,1382.8418,702.5,1378.8418" style="stroke:#181818;stroke-width:1.0;"/><line style="stroke:#181818;stroke-width:1.0;" x1="571.5" x2="704.5" y1="1378.8418" y2="1378.8418"/><text fill="#000000" font-family="sans-serif" font-size="13" lengthAdjust="spacing" textLength="74" x="578.5" y="1374.0996">Transfer nft</text><line style="stroke:#181818;stroke-width:1.0;" x1="720.5" x2="762.5" y1="1408.1523" y2="1408.1523"/><line style="stroke:#181818;stroke-width:1.0;" x1="762.5" x2="762.5" y1="1408.1523" y2="1421.1523"/><line style="stroke:#181818;stroke-width:1.0;" x1="721.5" x2="762.5" y1="1421.1523" y2="1421.1523"/><polygon fill="#181818" points="731.5,1417.1523,721.5,1421.1523,731.5,1425.1523,727.5,1421.1523" style="stroke:#181818;stroke-width:1.0;"/><text fill="#000000" font-family="sans-serif" font-size="13" lengthAdjust="spacing" textLength="74" x="727.5" y="1403.4102">Transfer nft</text><!--MD5=[b2ba3f963639e31b13d8cfbe94003824]
@startuml
actor User
participant Front
participant Server
participant AI
participant Infura
participant Chainlink
collections VotingNFTContract

== Voting Minimum ==
User ->> Front : Tap voting button
activate Front
Front -> Front : Create tx
User ->> Front : Sign
Front -> Infura : Send tx
activate Infura
Infura -> VotingNFTContract : Transfer nft\n- tokenId, to
activate VotingNFTContract
VotingNFTContract -> VotingNFTContract : Transfer nft
VotingNFTContract - -> Infura : Receipt
deactivate VotingNFTContract
Infura - -> Front : Receipt
deactivate Infura
deactivate Front

== Voting Full ==
User ->> Front : Tap voting button\nwith comment
activate Front
User ->> Front : Sign
Front -> Server : Transfer Request\n- signature, comment
activate Server
Server -> AI : Predict\n- comment
activate AI
AI -> AI : Predict
AI - -> Server : Comment
deactivate AI
Server -> Server : Create tx
Server -> Infura : Send tx
activate Infura
Infura -> VotingNFTContract : Transfer nft\n- tokenId, to
activate VotingNFTContract
VotingNFTContract -> VotingNFTContract : Transfer nft
VotingNFTContract - -> Infura : Receipt
deactivate VotingNFTContract
Infura - -> Server : Receipt
deactivate Infura
Server - -> Front : Result
deactivate Server
deactivate Front

== Voting Extra ==
User ->> Front : Tap voting button
activate Front
Front -> Front : Create tx
User ->> Front : Sign
Front -> Infura : Send tx
activate Infura
Infura -> VotingNFTContract : Transfer nft\n- tokenId, to
activate VotingNFTContract
VotingNFTContract - -> Infura : Receipt
Infura - -> Front : Receipt
deactivate Infura
deactivate Front
VotingNFTContract ->> Chainlink : Comment Request
deactivate VotingNFTContract
activate Chainlink
Chainlink -> AI : Predict\n- comment
activate AI
AI -> AI : Predict
AI - -> Chainlink : Comment
deactivate AI
Chainlink -> VotingNFTContract : Transfer nft
deactivate Chainlink
activate VotingNFTContract
VotingNFTContract -> VotingNFTContract : Transfer nft

@enduml

PlantUML version 1.2022.7(Tue Aug 23 02:01:30 JST 2022)
(GPL source distribution)
Java Runtime: OpenJDK Runtime Environment
JVM: OpenJDK 64-Bit Server VM
Default Encoding: UTF-8
Language: en
Country: JP
--></g></svg>